<svg width="778" height="779" viewBox="0 0 778 779" fill="none" xmlns="http://www.w3.org/2000/svg">
<path d="M577.482 49.3815C618.125 71.9134 653.565 101.122 682.865 135.106C662.068 232.382 617.35 320.505 551.626 396.947C490.333 468.237 411.709 528.351 319.059 576.549C384.549 553.055 450.837 519.687 510.909 476.026C609.619 404.283 687.245 308.195 720.935 187.509C778.476 282.368 795.256 401.058 756.845 514.35C691.059 708.385 487.148 816.505 291.942 766.241C388.814 739.184 504.452 679.246 596.023 591.537C609.44 578.686 622.241 565.34 634.33 551.518C617.211 566.437 599.561 580.438 581.546 593.531C471.411 673.578 343.542 723.125 228.777 744.112C142.815 705.511 76.755 638.475 38.0875 558.185C41.7781 556.312 45.7252 554.804 49.895 553.72C233.474 505.989 373.608 424.561 462.93 320.671C529.034 243.787 568.923 152.853 577.482 49.3815Z" fill="#ECA555"/>
<path d="M195.441 51.7409C229.403 32.3376 266.216 18.0609 304.6 9.54445C326.866 61.6155 354.151 110.723 385.755 154.435C391.203 143.104 396.01 131.465 400.132 119.515C374.745 81.7183 352.639 42.8865 333.617 4.25459C392.177 -4.13729 453.542 0.75176 513.4 21.0531C519.051 22.9695 524.628 25.0043 530.131 27.1515C527.729 150.959 476.031 255.153 397.458 336.173C301.36 435.264 165.044 500.37 26.3105 531.178C12.1676 495.09 3.35505 456.815 0.489258 417.598C13.932 414.564 27.2816 411.18 40.4995 407.453C26.7151 386.877 13.9041 365.996 2.02993 345.012C5.14411 318.131 11.1262 291.167 20.1666 264.503C29.3601 237.387 41.2507 211.948 55.4386 188.385C80.4651 248.623 112.912 309.3 153.491 365.518C165.89 359.689 178.03 353.525 189.87 347.033C147.154 290.482 109.732 226.116 77.9431 155.069C103.469 121.223 134.116 92.1888 168.358 68.718C201.228 150.635 241.022 221.547 286.39 280.694C296.291 272.146 305.747 263.282 314.718 254.112C266.112 193.796 226.17 124.47 195.441 51.7409Z" fill="#ECA555"/>
</svg>
